<?xml version="1.0" encoding="utf-8"?>
<!-- Generator: Adobe Illustrator 18.0.0, SVG Export Plug-In . SVG Version: 6.00 Build 0)  -->
<!DOCTYPE svg PUBLIC "-//W3C//DTD SVG 1.1//EN" "http://www.w3.org/Graphics/SVG/1.1/DTD/svg11.dtd">
<svg xmlns="http://www.w3.org/2000/svg" xmlns:xlink="http://www.w3.org/1999/xlink" version="1.1" id="Слой_1" x="0px" y="0px" viewBox="0 168 1024 455.7" enable-background="new 0 168 1024 455.7" xml:space="preserve">
<path fill="#000000" stroke="" stroke-width="2" stroke-linecap="round" stroke-linejoin="round" stroke-miterlimit="10" d="  M1018.6,315.9c-25.4-17.2-64.1-9.2-76.8-6c-0.2-0.2-0.3-0.4-0.5-0.6c19.2-22.2,70.4-29.8,71-29.9c0.5-0.1,0.9-0.6,0.8-1.1  c-0.1-0.5-0.6-0.9-1.1-0.8c-2.2,0.3-52.5,7.8-72.2,30.5c-1.7-1.4-3.7-2.8-5.7-4c13-18.1,45.9-59,82.5-65.5c0.5-0.1,0.9-0.6,0.8-1.2  c-0.1-0.5-0.6-0.9-1.2-0.8c-37.4,6.7-70.8,48.3-83.9,66.5c-1.6-0.9-3.1-1.6-4-2.1c2.1-40.3,28.2-57.3,28.4-57.5  c0.5-0.3,0.6-0.9,0.3-1.4c-0.3-0.5-0.9-0.6-1.4-0.3c-0.3,0.2-26.4,17.1-29.3,57.1c-3.6-6.3-11.2-13.6-11.2-13.6  c-0.3-11-7.2-12.1-7.2-12.1c5.2,1,7.3-4.3,7.3-4.3c-7.2,4.3-11.3-0.5-11.3-0.5c4.8,2.1,9.1-2.8,9.1-2.8c-9,2.8-14.7-7-14.7-7  s-23.6-27.6-30.3-28c0,0,4.2-8,3.8-12.6c0,0-3,5.9-5.5,6.7c0,0,3.4-12.6-11.8-32.4c0,0-20.2-27-22.8-11c0,0,1.7,24,0,26.1l-2.5-4.6  c0,0-1,13.9-0.3,18.2c-1.1-2.3-3.5-6.9-3.5-6.9s-1.7,13.5,0.8,16c0,0-17.3,2.9-26.5,11.8c0,0-13.1-9.3-24.9-9.3l5.5,4.6  c0,0-22.3-11-38.8-11c0,0-20.2-7.8-21.1,8.4c0,0-0.4,11.4,2.9,14.3l2.5,6.3l-6.4-4.5c0,0-14-11-42-11l6,5.8  c0,0-76.7-34.9-163.4-17.6l10,1.4c0,0-131.4,10.7-186.8,84.1l12-7.3c0,0-44,40.7-60.7,108.1l7.3-5.4c0,0-9.9,45.3-36.6,57.3h12.3  c0,0-17.7,15-45.1,15.7l10,4.3c0,0-32,12.5-43.4-0.2c0,0,2.8,10.9,9.3,12.4c-5.6-0.5-20.8-2.9-24.6-13.2c0,0-1.3,6.9,2.7,13.6  l-2.7-0.3c-10.8-2.7-16.5-10.4-16.5-10.4c-0.3,6.6,3.5,10,3.5,10s-12.4-7-19.1-9.7l8,9.4c0,0-65.4-33.3-98.7-38l19.4,11.4  c0,0-32.7-16.7-58.7-11.3l7.3,5.3c0,0-19.3-1.4-19.3-6.4c0,0-0.7,8.4,4,13.7c0,0-8-6-8-8.7c0,0-5.3,34,18,58.7l-11.3-8.1  c0,0,22,53.9,56.7,59.9H57.7c0,0,31.8,12.6,47.7,10.2l-15.3,3.1c0,0,31.4,3.2,44-0.2l-12.7,3.2c0,0,27.7,5.3,46.5,0l-13.2,8  c0,0,55.4-13.4,63.4-15.4l-13.3,8c0,0,78.7-14.7,123.4-54.7l-6.7,10.7l17.3-12l-6.7,10.7c0,0,21.3-11.8,38.6,1.3  c0,0-0.8,37.9,97.5,29.4c0,0,8,8.7,18,26.7c0,0,8.7,20,39.4,12l10,3.8c12.4,7.2,20.4-1.9,20.4-1.9c8.3-3.2,17.3,5.3,17.3,5.3  c9,5.2,14.2-3.8,14.2-3.8c4.1-1,12.4,2.4,12.4,2.4c0-3.1-2.4-5.9-2.4-5.9c3.1-0.3,8.3,3.5,8.3,3.5c2.1-9.3-10.7-11.7-10.7-11.7  c0.3-2.1-8.3-7.9-8.3-7.9c-5.5-9.7-11.7-5.9-11.7-5.9c-6.6-9.7-21.1,2.1-21.1,2.1c-9.7,2.4-8.5-7.9-8.5-7.9  c5.2-3.1,10.6-21.3,10.6-21.3v5.4c11-9.3,20-48.7,20-48.7v7.3c6-13.8,4-39.4,4-39.4c4.1-4.5,16.3-5.2,16.3-5.2s-3.2-2.7-2.9-2.9  c6.9-2.6,19.7-2,19.7-2l-5.6-2.1c9.7-3.5,21.4,0.8,21.4,0.8v-6.4l5.1,7.6c0.7-4.1,2.8-7.9,2.8-7.9c-3.1,12.1,11.3,29,11.3,29  l0.2-8.3c0.4,8.1,6.6,16.6,6.6,16.6l0-7.9c-0.7,14.8,29.1,44.2,29.1,44.2c4.5,4.5,9.9,14.1,9.9,14.1v-5.1c2,1.4,4,6.9,4,6.9  c2.4,13.1,16.1,19.3,16.1,19.3c5.5,8.6,20.2,5.2,20.2,5.2c2.1,5.2,8.4,6.6,8.4,6.6c5.5,1.4,9.7-2.8,9.7-2.8c2.1-1.4,8,0,8,0  l-1.4-4.1c2.1,0.3,6.8-3.9,6.8-3.9c3.1-1.4,10.5-0.9,10.5-0.9c-3.1-3.8-9.3-4.8-9.3-4.8l-3.1-2.8c3.1,0.7,5.9-2.1,5.9-2.1  c2.1-2.4,9-2.1,9-2.1c-2.8-4.5-11.4-3.8-11.4-3.8l-3.9-3c-5.1-5.6-10.6-1.8-10.6-1.8l-8.3,2.8c2.8-0.7,6.6-6.6,6.6-6.6l3.5-3.1  c-1.7-1-6.2,0-6.2,0c-5.2-2.1-17.3,5.9-17.3,5.9s-3.1-2.1-2.1-4.5c1-2.4-0.8-16.6-0.8-16.6c3.1-1.4,7.8-22.9,7.8-22.9v5.6  c7-5.5,14-32,14-32v4c4-5.9,10.7-21.1,10.7-21.1c0.7,5.2,16.3,14.2,16.3,14.2v-3.9c4,5.5,15,12.4,15,12.4v-4.8  c4,8.3,20.2,15.9,20.2,15.9c5.2,11.4,6.5,5.5,6.5,5.5c0.5,1.2,1.3,2.2,1.9,3.2c8.1,13,20.4,8.2,20.4,8.2c2.8,4.8,8.7,6.9,8.7,6.9  c7.6,5.2,11.8-0.3,11.8-0.3c4.1,11,10.4,7.2,10.4,7.2c2.4,0,4.5,3.5,4.5,3.5c1.4-3.5,2-5.9,2-5.9c2.7,3.1,4.7,7.5,4.7,7.5  c2.2-3.4,1.6-6.5,1.6-6.5c2.1,0.7,4.8,5.5,4.8,5.5c5.2-13.1-9.7-19.3-9.7-19.3l-3.5-5.9c-2.1-7.9-21.7-10.4-21.7-10.4  c-7.9-2.1-17.9-10.7-17.9-10.7c-2.1-5.2-17.3-29.3-17.3-29.3c-0.3-7.6-6.6-40.4-6.6-40.4l3.8,5.2c-5.5-15.9,2.8-29.3,2.8-29.3  c0,3.1,2.1,6.2,2.1,6.2c-2.1-6.2,6.6-20,6.6-20l2.1,3.5c-0.7-3.1,1.7-6.9,1.7-6.9c0,2.6,3.1,5.1,3.1,5.1c-3.1-7.7,4.8-10.3,4.8-10.3  c8.8,3.4,20.9-0.6,28.8-4.1c-4,12.2-8.1,27.9-12,48c-0.1,0.5,0.3,1.1,0.8,1.2c0.1,0,0.1,0,0.2,0c0.5,0,0.9-0.3,1-0.8  c4.1-21.1,8.3-37.2,12.5-49.6c3.4-1.7,5.6-3,5.6-3c6.9,3.8,21.4-5.6,21.4-5.6c0.7,0.1,2-0.2,3.6-0.6c3.2,28.3,22,55.7,23,57.2  c0.3,0.5,0.9,0.6,1.4,0.2c0.5-0.3,0.6-0.9,0.2-1.4c-0.3-0.4-19.5-28.3-22.6-56.6c4.3-1.3,9.2-3.2,9.2-3.2  c15.5-2.1,16.2-12.8,16.2-12.8c9-1.4,10.7-14.5,10.7-14.5c5.9-5.9,3.5-20,3.5-20c0-0.4-0.2-0.8-0.3-1.1c13-3.3,50.2-10.7,74.5,5.9  c0.2,0.1,0.4,0.2,0.6,0.2c0.3,0,0.6-0.2,0.8-0.4C1019.2,316.8,1019,316.2,1018.6,315.9z"/>
</svg>
